<?xml version="1.0" standalone="no"?>
<!DOCTYPE svg PUBLIC "-//W3C//DTD SVG 20010904//EN"
 "http://www.w3.org/TR/2001/REC-SVG-20010904/DTD/svg10.dtd">
<svg version="1.0" xmlns="http://www.w3.org/2000/svg"
 width="260.000000pt" height="260.000000pt" viewBox="0 0 260.000000 260.000000"
 preserveAspectRatio="xMidYMid meet">
<metadata>
Created by potrace 1.11, written by Peter Selinger 2001-2013
</metadata>
<g transform="translate(0.000000,260.000000) scale(0.100000,-0.100000)"
fill="#000000" stroke="none">
<path d="M1227 2554 c-1 -1 -49 -4 -107 -8 -118 -7 -174 -13 -198 -20 -9 -3
-37 -8 -62 -11 -80 -12 -246 -73 -261 -97 -4 -6 -5 -200 -4 -431 2 -392 4
-427 23 -498 72 -264 287 -505 575 -643 108 -52 112 -52 230 7 301 151 491
369 566 648 18 68 20 108 21 495 l0 422 -33 19 c-87 52 -265 93 -462 109 -71
5 -284 12 -288 8z"/>
<path d="M410 578 c-34 -36 -26 -72 24 -113 52 -42 59 -57 42 -80 -17 -23 -56
-11 -56 16 0 14 -5 19 -17 17 -36 -7 -7 -64 36 -73 83 -16 107 93 31 139 -41
23 -56 54 -38 73 18 17 44 8 51 -19 6 -20 28 -21 34 -1 6 17 -30 53 -59 58
-19 4 -33 -1 -48 -17z"/>
<path d="M614 590 c-29 -11 -41 -52 -39 -131 2 -67 16 -108 38 -110 7 0 22 -2
35 -5 26 -5 62 26 63 56 0 11 1 40 1 65 0 79 -2 91 -14 107 -16 20 -57 29 -84
18z m55 -38 c5 -10 9 -51 9 -90 -1 -78 -15 -101 -51 -81 -14 8 -17 25 -17 87
0 77 9 102 37 102 7 0 17 -8 22 -18z"/>
<path d="M1066 585 c-7 -7 -10 -51 -10 -116 2 -127 1 -119 19 -119 11 0 15 12
15 50 l0 50 34 0 c18 0 39 7 46 15 16 20 17 90 1 109 -15 18 -90 26 -105 11z
m82 -58 c4 -33 -12 -56 -36 -53 -12 2 -18 14 -20 45 -3 41 -2 42 25 39 22 -2
29 -9 31 -31z"/>
<path d="M779 578 c-1 -16 -1 -198 0 -215 2 -20 111 -18 111 2 0 11 -11 15
-40 15 l-40 0 0 105 c0 87 -3 105 -15 105 -8 0 -15 -6 -16 -12z"/>
<path d="M1243 470 l0 -121 54 3 c60 3 76 21 23 26 -19 2 -37 7 -40 12 -3 4
-5 51 -4 104 1 85 -1 96 -16 96 -16 0 -18 -12 -17 -120z"/>
<path d="M1445 578 c-8 -28 -45 -200 -45 -214 0 -20 30 -17 31 4 1 9 1 20 0
24 -1 11 46 21 58 13 6 -3 11 -17 11 -31 0 -17 5 -24 20 -24 21 0 21 9 0 85
-5 17 -14 58 -21 93 -9 50 -15 62 -31 62 -10 0 -20 -6 -23 -12z m30 -140 c-19
-13 -27 10 -20 54 l8 43 11 -45 c8 -30 8 -47 1 -52z"/>
<path d="M1625 568 c-52 -229 -51 -218 -30 -218 9 0 18 13 22 31 5 25 10 30
32 27 18 -2 27 -10 29 -26 3 -22 27 -40 38 -30 2 3 -5 45 -17 94 -27 115 -27
117 -28 132 -2 22 -40 13 -46 -10z m33 -86 c9 -39 8 -42 -10 -42 -16 0 -19 5
-14 23 3 12 6 33 6 46 0 34 7 23 18 -27z"/>
<path d="M1750 575 c0 -9 9 -15 25 -15 23 0 24 -2 24 -67 -1 -130 0 -143 15
-143 18 0 21 19 21 120 -1 83 0 85 24 90 48 10 25 25 -41 28 -56 2 -68 0 -68
-13z"/>
<path d="M2000 487 c0 -110 -6 -124 -42 -105 -11 5 -18 20 -18 38 0 20 -5 30
-15 30 -19 0 -21 -59 -2 -83 18 -26 61 -30 88 -8 21 17 23 26 23 122 0 90 -2
104 -17 107 -15 3 -17 -8 -17 -101z"/>
<path d="M2103 470 l0 -121 54 3 c61 3 76 22 21 26 -27 2 -38 8 -39 20 0 9 -2
27 -3 40 -2 18 2 22 26 22 18 0 28 5 28 15 0 9 -9 15 -24 15 -17 0 -25 7 -28
24 -7 34 2 44 41 48 19 2 36 9 39 16 3 9 -13 12 -56 12 l-59 0 0 -120z"/>
<path d="M689 238 c-1 -2 -3 -37 -4 -78 -3 -89 10 -119 50 -115 48 6 55 21 55
111 0 46 -4 84 -9 84 -13 0 -19 -27 -19 -85 0 -86 0 -87 -24 -83 -21 3 -23 9
-26 86 -2 45 -7 82 -12 82 -6 0 -11 -1 -11 -2z"/>
<path d="M835 145 c0 -70 3 -95 12 -95 9 0 13 19 13 63 l1 62 30 -62 c46 -93
56 -85 54 41 -1 52 -5 81 -13 84 -14 4 -15 -5 -12 -68 2 -51 -4 -48 -40 17
-14 26 -30 48 -35 50 -6 2 -10 -33 -10 -92z"/>
<path d="M996 233 c-3 -3 -6 -46 -6 -95 0 -68 3 -88 14 -88 11 0 14 20 14 90
0 84 -6 109 -22 93z"/>
<path d="M1057 211 c3 -14 10 -37 15 -51 5 -14 9 -26 9 -28 -1 -1 2 -20 5 -42
5 -30 11 -40 22 -38 15 3 27 32 36 94 3 17 10 43 15 57 7 18 7 28 0 33 -17 10
-18 7 -35 -76 -3 -14 -6 -33 -7 -42 -2 -31 -15 -5 -21 44 -8 62 -14 75 -31 75
-11 0 -13 -7 -8 -26z"/>
<path d="M1206 231 c-2 -3 -3 -46 -2 -96 l1 -90 39 2 c22 2 42 5 45 8 9 10
-20 23 -40 18 -16 -5 -19 0 -19 31 0 29 4 36 16 34 10 -2 19 3 21 10 3 7 -4
12 -16 12 -16 0 -21 6 -21 25 0 21 5 25 30 25 19 0 30 5 30 14 0 11 -12 15
-40 14 -22 0 -42 -3 -44 -7z"/>
<path d="M1342 231 c-8 -5 -12 -36 -11 -94 1 -69 4 -87 16 -87 10 0 14 9 13
28 -1 15 -2 33 -1 40 1 14 40 17 42 2 1 -5 3 -19 4 -30 1 -11 3 -24 4 -29 0
-5 8 -12 17 -15 13 -5 14 -1 8 27 -4 17 -6 58 -6 89 1 31 -3 60 -8 63 -17 11
-65 14 -78 6z m52 -27 c18 -17 6 -54 -18 -54 -18 0 -26 32 -14 54 11 20 13 20
32 0z"/>
<path d="M1486 224 c-24 -23 -14 -52 29 -88 27 -23 36 -38 32 -49 -9 -25 -44
-21 -51 5 -4 17 -8 20 -17 11 -17 -17 -1 -53 24 -54 37 -2 51 2 63 19 17 23 6
53 -34 88 -24 21 -33 36 -29 47 9 23 34 21 42 -3 8 -25 25 -26 25 -2 0 40 -54
57 -84 26z"/>
<path d="M1619 238 c-1 -2 -3 -45 -4 -95 -1 -70 1 -93 11 -93 8 0 14 16 16 43
5 64 -3 147 -13 147 -5 0 -10 -1 -10 -2z"/>
<path d="M1670 230 c0 -9 14 -14 33 -11 7 1 9 -31 9 -122 -1 -34 3 -47 14 -47
11 0 14 17 14 79 0 70 2 79 20 84 39 10 19 25 -35 26 -30 0 -55 -4 -55 -9z"/>
<path d="M1819 196 c9 -25 20 -48 24 -52 4 -4 7 -27 7 -51 0 -29 4 -43 13 -43
9 0 13 14 13 43 1 23 10 63 22 89 26 55 26 58 8 58 -7 0 -19 -20 -26 -46 l-13
-47 -17 44 c-10 24 -25 45 -33 47 -14 3 -14 -2 2 -42z"/>
</g>
</svg>
